<svg width="513" height="513" viewBox="0 0 513 513" fill="none" xmlns="http://www.w3.org/2000/svg">
<rect x="0.175781" y="0.822266" width="512" height="512" fill="#FFFDFD"/>
<path d="M140.578 355.883L148.581 360.497V370.226C148.581 373.307 148.176 377.117 148.581 379.955L149.554 381.9C152.068 381.657 154.986 382.306 157.337 381.9C157.824 381.819 158.31 380.279 160.256 379.955C164.309 379.306 172.027 380.72 175.675 381.693C178.431 382.422 188.62 380.475 191.863 382.502C196.322 385.34 182.713 393.413 183.605 396.493C197.327 398.488 189.523 402.817 190.415 403.304C195.036 405.898 199.252 411.33 201.116 417.897C201.927 420.815 212.786 423.249 214.732 427.384L225.119 431.894C224.633 432.867 222.925 437.921 222.52 439.3C222.033 440.759 217.736 447.326 216.682 449.028C202.008 471.729 173.795 486.97 149.716 494.672C147.284 495.402 140.393 495.969 139.015 496.618C136.015 496.294 131.475 497.915 131.232 494.672L137.069 485.916L130.259 481.052C127.259 482.106 127.584 486.646 127.34 486.889C126.935 487.214 125.314 486.403 124.422 486.889C123.692 487.295 119.882 491.105 119.557 491.754C117.855 495.24 129.61 493.294 131.232 494.672C126.881 494.672 145.573 494.607 141.533 496.222C138.939 496.222 114.369 500.509 111.774 500.509C109.18 500.509 106.586 500.59 103.992 500.509C102.37 500.509 100.749 500.509 99.1272 500.509L98.1543 498.564C104.397 492.483 112.18 487.051 117.531 480.16C125.587 469.652 134.062 451.719 135.042 438.489L136.988 437.516C136.988 410.111 137.928 382.936 140.578 355.883ZM148.581 410.924C160.661 412.708 158.391 404.925 158.31 395.439L157.337 393.494H149.554L146.636 396.412V410.033L148.581 411.005V410.924ZM146.636 426.49C146.636 427.787 146.636 429.085 146.636 430.382L144.69 431.355C144.69 432.327 144.69 433.3 144.69 434.273C144.69 435.895 144.69 437.516 144.69 439.138C145.014 440.354 145.906 439.948 146.636 440.11C147.203 440.273 147.933 440.11 148.581 440.11L149.554 442.056H155.391L156.364 440.11C156.364 438.165 156.364 436.219 156.364 434.273L158.31 433.3V427.463C157.986 426.166 156.445 426.571 156.364 426.49C156.283 426.409 156.689 424.869 155.391 424.544H147.609L146.636 426.49ZM140.798 455.595C141.366 459.568 139.501 463.216 136.907 466.297C136.907 467.108 142.501 470.594 143.717 471.161C147.527 473.026 146.311 466.864 148.581 466.297C147.446 463.703 153.608 456.406 148.581 455.595L147.609 453.65H141.771L140.798 455.595Z" fill="#572E89"/>
<path d="M259.158 232.405C260.455 232.405 261.752 232.243 263.049 232.405L251.375 236.297L256.239 246.026C257.698 243.593 259.158 244.404 261.104 244.08C262.644 243.837 264.346 244.242 265.968 244.08L266.941 242.134C267.589 242.134 268.238 242.134 268.886 242.134L270.832 241.161L268.886 238.243C268.886 237.594 269.049 236.783 268.886 236.297C268.238 227.055 275.697 236.054 279.588 238.243C280.48 238.729 282.101 237.918 282.507 238.243C282.912 238.567 282.02 240.269 282.507 241.161C283.317 242.62 303.342 264.591 304.802 265.402C311.206 269.05 312.017 277.401 318.422 280.887C320.692 282.184 330.34 293.615 331.069 295.48C331.393 296.29 330.907 297.425 331.069 298.398V300.344C330.421 300.344 329.772 300.344 329.123 300.344C311.01 300.948 292.92 302.478 274.643 308.127V299.371C268.4 294.426 262.239 287.778 256.239 282.914C245.943 274.563 236.457 273.59 227.134 267.429C223.972 265.321 221.54 261.186 217.405 259.646C215.784 259.484 214.081 259.808 212.541 259.646C211.974 259.646 211.163 259.646 210.595 259.646C210.757 257.943 210.109 257.862 208.65 257.7C206.785 257.457 204.758 257.862 202.812 257.7C203.623 254.781 197.973 254.572 197.324 252.22C198.135 251.572 203.542 247.404 205.731 246.026C217.486 238.648 237.511 228.757 250.402 224.703C258.121 222.433 259.158 225.11 259.158 232.405ZM241.727 251.782L236.863 242.053L224.216 247.89L229.08 257.619L241.727 251.782Z" fill="#94278A"/>
<path d="M166.013 308.047V310.965L162.122 319.721L171.851 321.667C171.526 328.153 176.066 331.963 177.688 338.124C184.579 345.988 194.146 349.718 200.956 357.501C206.144 363.5 212.549 369.824 219.359 375.904C222.359 378.58 223.088 380.85 228.115 379.796C228.115 395.925 228.271 417.144 224.843 432.571C224.519 433.868 222.359 434.114 222.278 434.195L214.495 429.331C212.549 425.196 201.766 420.575 200.875 417.657C199.01 411.171 194.054 412.003 189.433 409.409C188.622 408.922 183.525 396.74 183.363 396.253C182.471 393.173 184.903 390.335 180.444 387.498C177.282 385.471 173.472 386.281 170.716 385.552C167.067 384.579 164.149 379.066 160.014 379.715V373.877C160.014 372.013 160.338 369.662 160.014 368.04C159.609 366.176 158.312 365.446 157.095 364.149C154.825 364.068 152.555 364.311 150.285 364.149C149.637 364.149 148.988 364.149 148.34 364.149V360.257H140.557V354.42C143.296 336.156 146.199 324.985 154.177 307.803C158.474 309.182 163.662 302.777 165.851 307.803L166.013 308.047ZM154.42 339.097C153.934 340.07 154.825 342.583 154.42 343.962C154.096 344.935 151.826 345.097 152.474 348.826C152.636 349.637 152.231 350.529 153.447 350.772C155.069 350.772 156.69 350.772 158.312 350.772C159.609 350.772 161.068 350.934 162.203 350.772C163.014 350.61 163.824 351.015 164.149 349.799C164.23 347.529 163.987 345.259 164.149 342.989C164.149 342.34 163.987 341.611 164.149 341.043C164.149 340.719 167.392 341.124 166.094 336.179C165.689 334.882 164.878 335.368 164.149 335.206C163.5 335.044 162.689 335.449 162.203 335.206C161.96 335.125 163.176 333.179 158.312 333.26C157.663 333.26 157.014 333.26 156.366 333.26L154.42 334.233V339.097Z" fill="#622E8A"/>
<path d="M200.952 251.781C201.601 254.051 203.709 254.7 202.898 257.619C204.844 257.781 206.87 257.375 208.735 257.619V259.564L199.006 268.32L203.871 275.13C206.384 271.644 209.303 270.347 212.627 268.32C217.086 265.564 211.897 262.969 212.627 259.564C214.167 259.727 215.87 259.402 217.491 259.564C221.626 261.105 223.977 265.158 227.22 267.347C236.543 273.59 246.029 274.482 256.325 282.832C262.324 287.697 268.486 294.345 274.728 299.29V308.046C270.999 309.262 268.323 310.721 264.027 311.937C263.216 312.18 252.028 320.45 250.406 321.666C246.596 324.503 237.597 337.799 235.813 342.015C235.003 343.961 234.759 344.934 233.868 346.879L228.03 324.585C224.788 323.693 216.842 314.369 215.383 313.883C206.303 311.289 202.898 303.1 199.817 302.209C194.061 300.587 190.98 298.236 185.224 296.371L193.007 285.67L188.143 280.805H186.197L179.387 286.643C179.387 286.643 176.468 286.805 177.441 282.751H169.658C177.684 272.05 187.008 260.456 197.79 251.7C198.52 251.133 200.223 252.106 200.709 251.7L200.952 251.781Z" fill="#7A2C8B"/>
<path d="M403.469 195.463C403.469 224.729 388.288 262.565 363.997 282.917C360.511 281.377 363.186 278.134 360.105 274.162C359.376 273.27 357.998 271.81 357.187 271.243C356.376 270.675 352.16 269.865 351.35 269.297C346.161 265.892 344.134 260.136 337.729 255.677C333.27 252.596 326.136 247.57 322.164 244.003C318.84 241.003 316.002 238.003 313.408 234.274H327.028L328.974 233.301V225.518L327.028 224.545H313.408L311.462 225.518C311.462 227.139 311.381 228.761 311.462 230.382C302.868 232.571 305.057 222.113 297.842 222.599V216.762C328.845 216.762 377.014 214.317 403.469 195.463ZM375.671 216.843C372.429 217.492 371.05 220.654 371.78 223.653C372.104 224.95 373.726 224.545 373.726 224.626C374.05 225.518 373.564 227.302 373.726 228.518L388.319 224.626C389.535 224.383 389.129 223.491 389.292 222.68C389.535 221.14 389.129 219.438 389.292 217.816C388.967 216.519 387.427 216.924 387.346 216.843C387.265 216.762 387.67 215.222 386.373 214.897L375.671 216.843ZM352.323 222.68C350.052 222.68 347.782 222.68 345.512 222.68C341.783 225.113 342.432 228.193 342.594 232.409L358.16 230.463L360.105 225.599C359.781 224.302 358.241 224.707 358.16 224.626C357.835 224.14 358.484 222.924 358.16 222.68L357.187 220.735H353.295L352.323 222.68Z" fill="#B0258C"/>
<path d="M292.155 216.836C294.101 216.674 296.047 216.998 297.993 216.836V222.673C305.127 222.187 303.019 232.645 311.613 230.456C311.613 231.429 311.613 232.402 311.613 233.375C312.099 234.753 313.477 234.266 313.559 234.348C316.153 237.996 318.99 241.077 322.314 244.076C326.206 247.643 333.421 252.589 337.88 255.751C344.204 260.21 346.312 265.885 351.501 269.371C352.311 269.938 356.446 270.749 357.338 271.317C358.23 271.884 359.527 273.343 360.256 274.235C363.337 278.208 360.662 281.451 364.148 282.991C353.689 291.747 349.798 294.26 336.989 298.476H331.151C330.989 297.584 331.476 296.368 331.151 295.557C330.422 293.774 320.774 282.261 318.504 280.964C312.099 277.397 311.37 269.128 304.884 265.479C303.424 264.669 283.4 242.698 282.589 241.239C282.102 240.347 282.913 238.725 282.589 238.32H297.182L298.155 236.374V229.564C296.695 227.943 294.669 225.511 292.318 226.646H283.562L282.589 228.591C282.751 231.186 282.346 233.78 282.589 236.374C282.589 237.023 282.589 237.672 282.589 238.32C282.265 237.996 280.562 238.807 279.67 238.32C275.779 236.212 268.32 227.132 268.969 236.374C268.969 236.131 266.05 236.536 267.023 232.483C265.726 232.483 264.429 232.645 263.131 232.483C261.834 232.321 260.537 232.483 259.24 232.483L247.297 225.869C257.557 221.041 281.233 217.738 292.318 216.917L292.155 216.836Z" fill="#A0268B"/>
<path d="M179.308 278.277L177.678 282.831C176.624 286.884 179.543 286.479 179.624 286.722C179.867 287.208 178.463 288.104 178.625 288.752L177.678 290.613C177.678 291.911 181.569 296.045 182.542 296.451C183.434 296.856 187.069 295.64 187.879 295.883C193.554 297.747 194.298 300.585 200.054 302.288C203.054 303.18 206.459 311.287 215.62 313.962C217.079 314.368 224.943 323.772 228.267 324.664L234.104 346.959C233.316 348.852 232.159 350.745 232.159 352.796L225.349 348.905C221.944 344.04 219.998 344.365 215.62 343.067C212.945 342.257 206.053 328.637 202 327.583C198.595 326.61 195.19 328.799 192.271 323.691C185.056 324.907 180.029 320.772 173.868 317.854C174.111 317.124 173.462 315.908 173.868 314.935C174.435 313.476 177.11 311.936 175.813 308.125L170.949 306.179L166.085 308.125C163.896 303.099 158.707 309.503 154.41 308.125C157.813 300.185 165.989 287.446 171.57 280.102L179.308 278.277Z" fill="#742D8C"/>
<path d="M173.787 317.771C180.03 320.69 185.057 324.825 192.191 323.609C195.11 328.716 201.606 322.437 205.011 323.41C208.984 324.545 217.836 335.429 220.593 336.159C224.97 337.375 221.863 343.877 225.268 348.822L232.079 352.714C229.135 361.545 228.187 369.955 228.187 379.954C223.161 381.008 222.431 378.738 219.431 376.063C212.54 369.901 206.216 363.659 201.028 357.659C194.218 349.795 184.57 346.066 177.76 338.283C176.139 332.04 171.598 328.23 171.923 321.825C172.166 316.961 173.787 318.177 173.869 317.934L173.787 317.771Z" fill="#692D8A"/>
<path d="M336.835 298.404C336.349 298.566 336.106 300.026 330.998 300.35V298.404H336.835Z" fill="#C2A3CC"/>
<path d="M158.23 395.436H148.582V410.921L146.637 409.948V396.409L149.555 393.49H157.257L158.23 395.436Z" fill="#A47BB6"/>
<path d="M156.365 426.487H146.637L147.61 424.541H155.393C156.69 424.865 156.284 426.406 156.365 426.487Z" fill="#C2A3CC"/>
<path d="M156.359 434.198C156.359 431.604 156.359 429.009 156.359 426.415C156.359 426.415 157.981 426.091 158.305 427.388V433.225L156.359 434.198Z" fill="#A47BB6"/>
<path d="M156.371 440.029L155.398 441.975H149.561L148.588 440.029C151.182 440.191 153.777 439.948 156.371 440.029Z" fill="#A47BB6"/>
<path d="M148.578 455.59H140.795L141.768 453.645H147.605L148.578 455.59Z" fill="#C2A3CC"/>
<path d="M146.637 440.034C145.907 439.872 145.016 440.278 144.691 439.062C144.691 437.44 144.691 435.819 144.691 434.197H146.637V440.034Z" fill="#A47BB6"/>
<path d="M146.637 434.194H144.691C144.691 433.221 144.691 432.248 144.691 431.276L146.637 430.303C146.637 431.6 146.637 432.897 146.637 434.194Z" fill="#622E8A"/>
<path d="M268.898 242.141C268.898 240.844 269.061 239.547 268.898 238.25L270.844 241.169L268.898 242.141Z" fill="#A0268B"/>
<path d="M210.688 259.559C210.039 259.559 209.391 259.559 208.742 259.559V257.613C210.201 257.775 210.85 257.856 210.688 259.559Z" fill="#A47BB6"/>
<path d="M358.152 230.455V224.618C358.152 224.618 359.774 224.294 360.098 225.591L358.152 230.455Z" fill="#A47BB6"/>
<path d="M358.15 222.68C356.204 222.68 354.258 222.68 352.312 222.68L353.285 220.734H357.177L358.15 222.68Z" fill="#A47BB6"/>
<path d="M480.407 15.0434C479.649 55.2066 480.559 99.5933 441.573 123.843L427.953 109.25L422.116 95.6295L415.306 88.8194L410.441 81.0364C414.576 79.0907 419.927 75.9289 425.034 73.2535C439.382 65.7332 473.131 38.1596 478.38 15.0434L479.449 14.0685L480.326 13.0977V15.0434H480.407Z" fill="#F8B62D"/>
<path d="M268.885 51.9344C270.831 51.9344 272.777 51.9344 274.723 51.9344L265.967 61.6631C254.13 65.1492 258.751 73.5807 257.211 82.0123C257.049 82.823 253.644 88.6602 253.319 89.7952C252.833 91.4167 253.806 94.011 253.319 95.6325C252.509 98.47 242.537 103.01 243.591 108.28C232.97 110.55 222.674 112.658 212.54 116.063L208.649 114.117C208.649 115.414 208.649 116.711 208.649 118.008C207.595 118.333 205.73 117.684 204.757 118.008H201.838L200.866 119.954C200.298 120.197 199.487 119.711 198.92 119.954C193.164 121.332 193.083 112.982 190.164 112.171C188.543 111.685 186.11 112.577 184.327 112.171C179.3 110.955 171.598 105.361 166.896 110.226L161.059 106.334L152.303 110.226V104.388H146.466V100.497H140.629C141.439 95.5514 136.656 94.6596 132.846 92.7138C134.629 91.2545 136.899 87.0388 139.656 84.9309C169.984 62.1844 223.397 51.3521 259.157 51.9344C260.373 51.3669 266.372 52.0154 268.885 51.9344Z" fill="#1EACE3"/>
<path d="M188.301 162.517C174.701 177.19 169.816 189.928 169.816 209.052C169.816 211.566 169.573 214.322 169.816 216.835C154.899 220.403 138.117 230.537 129.037 243.022C128.631 243.508 125.226 248.454 125.145 248.859C124.74 250.156 125.632 251.778 125.145 252.751C119.065 265.641 119.47 266.938 119.308 281.856C119.308 285.666 121.254 289.72 115.417 288.666C112.255 283.558 109.174 279.667 105.688 273.181C105.445 270.343 106.093 267.1 105.688 264.425C104.796 258.75 103.904 255.021 103.742 247.967L105.688 246.994C105.364 241.157 106.418 235.725 107.634 230.537C109.255 223.402 111.363 218.943 115.417 212.133C119.876 204.593 131.226 190.081 138.684 184.001C139.171 183.596 140.873 184.569 141.603 184.001C154.088 174.434 168.114 166.003 182.383 160.733C184.896 159.76 189.922 156.68 191.138 160.733C191.638 159.734 189.329 162.953 188.301 162.517Z" fill="#2E296A"/>
<path d="M169.524 216.646C170.391 224.449 178.141 236.73 183.144 244.86C176.739 250.535 169.524 255.318 163.768 262.29C153.552 274.613 144.634 290.909 138.554 305.016L133.69 313.771L119.097 297.314C117.799 295.449 115.935 289.774 115.205 288.558C121.042 289.693 119.015 285.558 119.097 281.748C119.259 266.83 118.853 265.533 124.934 252.643C125.42 251.67 124.528 250.048 124.934 248.751C125.015 248.427 128.42 243.482 128.825 242.914C137.905 230.429 154.687 220.295 169.605 216.728L169.524 216.646Z" fill="#3E2F7F"/>
<path d="M132.997 92.6323C136.808 94.578 141.51 95.4698 140.78 100.415H146.617V104.307H152.455V110.144L161.21 106.252L167.048 110.144C171.75 105.28 179.533 110.874 184.478 112.09C186.181 112.495 188.694 111.603 190.316 112.09C193.234 112.9 193.315 121.251 199.071 119.873C188.613 124.494 167.372 136.168 158.292 143.14C149.617 145.654 136.159 148.41 135.024 137.303L116.621 131.466L98.2305 131.759C98.5548 131.272 101.541 127.493 102.028 126.602C108.432 115.9 119.782 101.469 130.16 92.6323C130.808 92.0648 142.825 82.7608 143.311 82.3555L132.997 92.6323Z" fill="#24A4DD"/>
<path d="M303.833 100.406L300.914 106.243C298.401 106.568 295.482 105.838 293.131 106.243C289.159 106.973 283.159 109.243 278.538 110.135C265.566 112.648 250.487 113.945 239.704 119.864C230.786 119.134 223.652 125.377 214.491 125.701L219.355 135.43C222.112 136.565 226.814 139.564 229.084 141.267C231.354 142.969 234.375 143.569 233.808 146.893C220.366 146.893 211.543 153.522 191.142 160.724C190.007 156.671 184.899 159.751 182.386 160.724C168.117 165.994 154.092 174.425 141.607 183.992C140.877 184.56 139.174 183.587 138.688 183.992L136.742 177.182C157.821 157.238 177.603 143.699 203.708 131.538C205.086 130.89 205.33 128.619 208.572 129.592C208.654 125.701 208.41 121.809 208.572 117.918C210.437 117.35 210.842 115.972 212.464 115.972C222.598 112.648 232.894 110.459 243.515 108.189C249.919 106.811 256.243 105.433 262.891 104.298C267.674 103.487 271.404 102.757 276.511 102.352C285.835 101.622 294.185 101.217 303.671 100.406H303.833Z" fill="#D45F2B"/>
<path d="M410.596 81.0398L415.461 88.8228L422.271 95.6329L428.108 109.253L441.728 123.846C425.653 133.917 408.631 139.412 391.22 139.412C391.463 132.034 380.843 134.467 383.437 124.819L387.329 120.927V117.036C387.085 116.306 385.707 115.901 385.383 115.09C384.896 113.793 384.005 110.064 383.437 109.253C379.789 103.74 370.303 100.335 371.763 92.7953L373.708 90.8496C385.464 88.6606 394.301 85.1745 405.732 81.1209C407.029 80.6345 409.542 81.6073 410.596 81.1209V81.0398Z" fill="#F6A927"/>
<path d="M430.083 39.4785C428.705 44.7482 431.267 52.0281 429.97 56.8114C429.808 57.2978 423.646 63.4593 423.16 63.6215C417.485 65.2429 418.782 65.7294 415.377 67.513C396.406 77.3227 376.138 80.971 356.194 84.9435C355.87 79.836 359.356 75.8634 358.14 70.3505C356.924 64.8376 358.14 61.1893 356.194 54.8656C355.87 53.8117 353.194 53.1631 354.248 50.0013C379.665 50.0013 406.617 45.7972 430.083 39.4785Z" fill="#1E7EC2"/>
<path d="M371.772 90.6855V92.6313C370.313 100.171 379.798 103.576 383.447 109.089C384.014 109.9 384.906 113.629 385.392 114.926C385.717 115.737 387.095 116.142 387.338 116.872V120.763L383.447 124.655C380.771 134.303 413.95 137.574 403.566 138.205C387.84 141.069 360.816 143.139 356.206 143.139C356.774 134.87 350.612 130.087 346.478 124.736C343.073 120.277 339.181 113.953 333.83 110.143C333.344 109.819 329.696 109.657 328.966 107.224C328.642 106.251 328.317 102.36 329.939 102.36L339.668 100.414L350.369 94.577C351.018 94.496 351.666 94.6581 352.315 94.577C358.557 93.6042 365.449 91.9016 371.691 90.6855H371.772Z" fill="#F5A02D"/>
<path d="M323.21 49.9912L325.155 60.6928C328.074 65.0707 328.804 71.6376 332.938 76.1777V88.825C331.641 88.825 330.344 88.6628 329.047 88.825C315.994 90.2843 300.671 94.8243 287.294 96.6079L276.593 102.445C271.485 102.851 267.837 103.58 262.973 104.391C264.594 99.3644 275.377 98.1483 276.593 93.6893C277.566 90.2843 276.025 86.3117 278.539 82.0149C280.89 78.0423 286.403 77.2316 288.267 74.2319C288.429 73.9887 290.132 70.5836 290.213 70.3404C290.699 68.0704 289.808 64.9896 290.213 62.5575C290.862 59.0714 293.294 56.2338 292.159 51.8559C302.609 51.8559 310.228 50.93 323.291 49.9102L323.21 49.9912Z" fill="#2697D4"/>
<path d="M476.588 20.8795C466.697 46.9849 448.699 61.0105 425.188 73.2524C420.081 75.9278 414.73 79.0896 410.595 81.0354C409.622 81.5218 407.028 80.5489 405.731 81.0354C394.3 85.0079 385.463 88.5751 373.707 90.7641C373.059 90.8451 372.41 90.683 371.762 90.7641C365.519 91.9801 358.628 93.6827 352.385 94.6555L350.439 86.8726C352.061 86.5483 353.358 85.4943 356.277 84.9268C376.302 80.9543 396.489 77.225 415.46 67.4963C418.865 65.7127 417.567 65.2262 423.243 63.6048C423.729 63.4426 429.891 57.2811 430.053 56.7947C431.35 52.0925 426.729 47.5524 428.107 42.2016C426.161 42.2016 424.215 42.0395 422.27 42.2016L432.971 38.3101C446.186 35.3915 468.719 23.2392 479.583 13.9969L476.669 20.8795H476.588Z" fill="#2668AE"/>
<path d="M121.399 185.775C117.103 195.504 111.265 204.503 107.779 213.907C106.158 218.366 106.563 228.825 105.833 230.365C103.888 234.5 104.05 234.5 103.888 240.094H100.969C99.2666 242.688 97.706 246.751 94.7874 246.67C89.6589 232.037 85.9398 208.75 86.1406 191.279C94.1668 191.036 102.51 180.019 110.617 181.803L121.318 185.694L121.399 185.775Z" fill="#1E7EC2"/>
<path d="M101.964 129.511L116.557 131.457L134.96 137.294C136.095 148.401 149.553 145.644 158.228 143.131C149.715 149.698 139.825 159.994 133.014 168.344C129.853 165.588 126.204 167.291 123.286 165.426C120.367 163.561 121.502 159.994 121.34 156.67C118.178 157.724 117.53 155.049 116.476 154.724C110.557 153.022 110.476 154.724 103.828 149.86C100.18 147.104 99.4504 146.05 94.0996 146.941V144.996C95.4778 141.347 96.0454 135.591 97.9911 132.348C99.045 130.565 101.72 129.673 101.883 129.43L101.964 129.511Z" fill="#2697D4"/>
<path d="M96.5328 135.524C101.884 134.632 100.172 147.193 103.902 149.949C110.55 154.895 110.631 153.03 116.549 154.813C117.522 155.138 118.251 157.813 121.413 156.759C121.575 160.083 120.359 163.569 123.359 165.515C126.359 167.461 129.845 165.677 133.088 168.434C129.764 172.568 127.007 177.19 123.359 181.081L121.413 185.945L110.712 182.054C102.523 180.27 94.1847 193.625 86.1585 193.869C86.1585 179.635 84.4745 163.973 90.2356 148.679L96.5328 135.524Z" fill="#298ACA"/>
<path d="M327.099 49.9822C330.341 49.8201 333.584 49.9822 336.827 49.9822C342.664 49.9011 348.502 49.9822 354.258 49.9822C353.204 53.144 355.879 53.7926 356.204 54.8466C358.068 61.1702 356.933 64.9806 358.149 70.3314C359.365 75.6822 355.879 79.7358 356.204 84.9245C353.285 85.492 351.988 86.5459 350.366 86.8702C344.691 87.9242 338.854 88.5727 332.936 88.816V76.1686C328.882 71.5475 328.071 64.9806 325.153 60.6838L323.207 49.9822C324.504 49.9822 325.801 49.9822 327.099 49.9822Z" fill="#298ACA"/>
<path d="M350.447 94.5801L339.746 100.417L330.017 102.363C328.395 102.363 328.72 106.173 329.044 107.227C329.774 109.66 333.422 109.822 333.908 110.146C339.259 113.956 343.07 120.28 346.556 124.739C350.69 130.09 356.852 134.954 356.284 143.143C348.263 144.064 342.917 144.681 336.827 145.088C337.638 137.305 328.801 132.603 327.098 126.685C324.261 125.55 323.693 121.496 323.207 120.848C321.099 118.172 312.019 110.795 311.532 109.173C311.208 108.2 310.884 104.309 312.505 104.309L327.098 102.363V98.4716L329.044 96.5258C333.746 96.1205 339.016 97.0933 343.637 96.5258C344.042 96.5258 346.961 95.0665 350.447 94.5801Z" fill="#F09825"/>
<path d="M239.786 119.864C239.056 123.999 240.434 126.269 243.677 128.62C248.866 132.43 255.352 134.295 260.135 137.376C262.324 138.754 265.567 142.078 264.999 145.159C256.023 145.159 229.62 146.614 218.047 150.146C218.615 146.903 231.354 143.051 229.003 141.267C226.652 139.484 222.031 136.565 219.275 135.43L214.41 125.701C223.652 125.377 230.787 119.134 239.624 119.864H239.786Z" fill="#E3712D"/>
<path d="M103.909 240.178C103.909 242.772 103.909 245.366 103.909 247.961C104.071 255.014 104.963 258.824 105.855 264.418C106.26 267.094 105.612 270.337 105.855 273.174C100.666 263.364 96.1263 255.5 94.1806 244.069C94.0995 243.421 94.1806 242.772 94.1806 242.123C97.0992 242.205 99.2881 242.772 100.991 240.178H103.909Z" fill="#2668AE"/>
<path d="M208.727 117.917C208.565 121.808 208.808 125.7 208.727 129.591C205.565 128.618 205.241 130.888 203.862 131.537C177.757 143.698 157.975 157.156 136.896 177.181L138.842 183.991C131.384 190.071 120.033 204.583 115.574 212.123C111.521 218.933 109.494 223.392 107.791 230.527H105.846C106.575 228.986 106.089 218.528 107.791 214.069C111.278 204.664 117.034 195.665 121.412 185.937L123.357 181.072C127.006 177.181 129.762 172.56 133.086 168.425C139.896 159.993 149.787 149.697 158.3 143.211C167.38 136.239 188.621 124.484 199.079 119.944C199.647 119.7 200.457 120.187 201.025 119.944C203.457 118.971 204.673 118.079 204.916 117.998C205.889 117.674 207.754 118.322 208.808 117.998L208.727 117.917Z" fill="#C04B2B"/>
<path d="M286.315 51.9219C288.261 51.9219 290.206 51.9219 292.152 51.9219C293.287 56.2998 290.855 59.0563 290.206 62.6234C289.801 64.9746 290.693 68.1364 290.206 70.4064C290.206 70.6496 288.423 74.0547 288.261 74.2979C286.396 77.2165 280.883 78.1083 278.532 82.0809C276.019 86.3777 277.559 90.3502 276.586 93.7553C275.37 98.2143 264.668 99.4304 262.966 104.457C256.318 105.592 249.994 106.97 243.59 108.348C242.536 103.16 252.508 98.5386 253.318 95.701C253.805 94.0796 252.832 91.5663 253.318 89.8638C253.643 88.7288 257.048 82.8916 257.21 82.0809C258.75 73.6493 254.129 65.2178 265.966 61.7317L274.721 52.0029C278.613 52.0029 282.504 52.0029 286.396 52.0029L286.315 51.9219Z" fill="#24A4DD"/>
<path d="M212.614 115.971C210.993 115.971 210.587 117.349 208.723 117.917C208.723 116.62 208.723 115.323 208.723 114.025L212.614 115.971Z" fill="#2697D4"/>
<path d="M204.843 117.922C204.843 117.922 203.383 118.895 200.951 119.868L201.924 117.922H204.843Z" fill="#2697D4"/>
<path d="M107.792 230.46C106.576 235.73 105.522 241.162 105.846 246.918L103.9 247.891C103.9 245.296 103.9 242.702 103.9 240.108C104.063 234.595 103.9 234.514 105.846 230.379H107.792V230.46Z" fill="#6F2E8C"/>
<path d="M327.095 98.4625V102.354L312.502 104.3C310.88 104.3 311.204 108.191 311.529 109.164C312.015 110.704 321.014 118.082 323.203 120.838C323.69 121.406 324.257 125.541 327.095 126.676C328.797 132.675 337.553 137.296 336.823 145.079C329.689 145.079 322.555 145.079 315.501 145.079C310.961 145.079 306.421 145.079 301.881 145.079L297.99 134.378C291.504 130.162 289.801 124.244 286.315 118.893C284.045 115.326 277.722 116.136 278.532 110.137C283.072 109.245 289.072 106.975 293.125 106.245C295.476 105.84 298.395 106.57 300.908 106.245L303.827 100.408C307.88 100.084 310.232 98.4625 310.637 98.4625C315.988 97.976 321.744 98.7867 327.095 98.4625Z" fill="#EA8724"/>
<path d="M278.612 110.147C277.801 116.066 284.125 115.336 286.395 118.903C289.8 124.254 291.503 130.172 298.069 134.388L301.961 145.09C292.962 145.09 283.801 145.09 274.802 145.09C271.559 145.09 268.316 144.928 265.073 145.09C265.64 142.09 262.398 138.766 260.209 137.307C255.425 134.226 248.858 132.361 243.751 128.551C240.508 126.2 239.211 123.93 239.859 119.795C250.642 113.877 265.722 112.661 278.693 110.066L278.612 110.147Z" fill="#E87C27"/>
<path d="M329.045 88.8164V96.5994L327.099 98.5451C321.667 98.8694 315.911 98.0587 310.641 98.5451C310.236 98.5451 307.885 100.167 303.831 100.491C294.346 101.302 285.995 101.707 276.672 102.437L287.373 96.5994C300.75 94.8158 315.992 90.2757 329.126 88.8164H329.045Z" fill="#298ACA"/>
<path d="M371.771 92.6234V90.6777C372.42 90.5966 373.069 90.7588 373.717 90.6777L371.771 92.6234Z" fill="#EA8724"/>
<path d="M350.454 86.8711L352.4 94.6541C351.751 94.7351 351.103 94.573 350.454 94.6541C347.049 95.1405 344.049 96.5187 343.644 96.5998C339.104 97.1673 333.753 96.1944 329.051 96.5998V88.8168C330.267 88.6547 331.645 88.8168 332.942 88.8168C338.861 88.5736 344.779 87.925 350.373 86.8711H350.454Z" fill="#1E7EC2"/>
</svg>
